<?xml version="1.0" encoding="UTF-8"?>
<svg xmlns="http://www.w3.org/2000/svg" xmlns:xlink="http://www.w3.org/1999/xlink" width="20pt" height="20pt" viewBox="0 0 20 20" version="1.1">
<g id="surface1" style="fill: rgb(216,5,90);" >
<path style=" stroke:none;fill-rule:nonzero;fill:rgb(216,5,90);fill-opacity:1;" d="M 6.484375 12.929688 L 17.070312 12.929688 C 17.332031 12.929688 17.5625 12.757812 17.632812 12.503906 L 19.976562 4.300781 C 20.027344 4.125 19.992188 3.933594 19.882812 3.789062 C 19.769531 3.640625 19.597656 3.554688 19.414062 3.554688 L 5.132812 3.554688 L 4.710938 1.671875 C 4.652344 1.402344 4.414062 1.210938 4.140625 1.210938 L 0.585938 1.210938 C 0.261719 1.210938 0 1.472656 0 1.796875 C 0 2.121094 0.261719 2.382812 0.585938 2.382812 L 3.671875 2.382812 L 5.785156 11.902344 C 5.164062 12.175781 4.726562 12.792969 4.726562 13.515625 C 4.726562 14.484375 5.515625 15.273438 6.484375 15.273438 L 17.070312 15.273438 C 17.394531 15.273438 17.65625 15.011719 17.65625 14.6875 C 17.65625 14.363281 17.394531 14.101562 17.070312 14.101562 L 6.484375 14.101562 C 6.160156 14.101562 5.898438 13.839844 5.898438 13.515625 C 5.898438 13.191406 6.160156 12.929688 6.484375 12.929688 Z M 6.484375 12.929688 "/>
<path style=" stroke:none;fill-rule:nonzero;fill:rgb(216,5,90);fill-opacity:1;" d="M 5.898438 17.03125 C 5.898438 18 6.6875 18.789062 7.65625 18.789062 C 8.625 18.789062 9.414062 18 9.414062 17.03125 C 9.414062 16.0625 8.625 15.273438 7.65625 15.273438 C 6.6875 15.273438 5.898438 16.0625 5.898438 17.03125 Z M 5.898438 17.03125 "/>
<path style=" stroke:none;fill-rule:nonzero;fill:rgb(216,5,90);fill-opacity:1;" d="M 14.140625 17.03125 C 14.140625 18 14.929688 18.789062 15.898438 18.789062 C 16.867188 18.789062 17.65625 18 17.65625 17.03125 C 17.65625 16.0625 16.867188 15.273438 15.898438 15.273438 C 14.929688 15.273438 14.140625 16.0625 14.140625 17.03125 Z M 14.140625 17.03125 "/>
</g>
</svg>
